<mxfile host="Electron" modified="2023-11-28T19:10:29.265Z" agent="Mozilla/5.0 (Windows NT 10.0; Win64; x64) AppleWebKit/537.36 (KHTML, like Gecko) draw.io/21.6.8 Chrome/114.0.5735.289 Electron/25.5.0 Safari/537.36" etag="vt5c1HsAzA8oZZeuaQge" version="21.6.8" type="device">
  <diagram id="C5RBs43oDa-KdzZeNtuy" name="Page-1">
    <mxGraphModel dx="1036" dy="4121" grid="1" gridSize="10" guides="1" tooltips="1" connect="1" arrows="1" fold="1" page="1" pageScale="1" pageWidth="827" pageHeight="1169" math="0" shadow="0">
      <root>
        <mxCell id="WIyWlLk6GJQsqaUBKTNV-0" />
        <mxCell id="WIyWlLk6GJQsqaUBKTNV-1" parent="WIyWlLk6GJQsqaUBKTNV-0" />
        <mxCell id="PtvGfc8u3fFPzmpzfyYF-7" value="MedicinalProductDefintion&amp;nbsp;&lt;br&gt;&lt;i style=&quot;border-color: var(--border-color);&quot;&gt;Stelbat Tablets, 20mg&lt;br&gt;Characteristics (pH, Ionic Strength etc.)&lt;br&gt;&lt;/i&gt;" style="rounded=1;whiteSpace=wrap;html=1;fontSize=12;glass=0;strokeWidth=1;shadow=0;fillColor=#ffe699;" parent="WIyWlLk6GJQsqaUBKTNV-1" vertex="1">
          <mxGeometry x="50" y="-3420" width="156" height="70" as="geometry" />
        </mxCell>
        <mxCell id="Kh6UWCqLEouyqFOK7ntM-25" value="Composition&lt;br&gt;&lt;br&gt;dd&lt;br&gt;&lt;br&gt;&lt;br&gt;&lt;br&gt;&lt;br&gt;&lt;br&gt;" style="rounded=1;whiteSpace=wrap;html=1;fontSize=12;glass=0;strokeWidth=1;shadow=0;fillColor=#fff2cc;strokeColor=#d6b656;" parent="WIyWlLk6GJQsqaUBKTNV-1" vertex="1">
          <mxGeometry x="285.5" y="-3500" width="149" height="130" as="geometry" />
        </mxCell>
        <mxCell id="Kh6UWCqLEouyqFOK7ntM-26" value="subject" style="endArrow=classic;html=1;rounded=0;exitX=0;exitY=0.5;exitDx=0;exitDy=0;entryX=1;entryY=0.25;entryDx=0;entryDy=0;" parent="WIyWlLk6GJQsqaUBKTNV-1" source="Kh6UWCqLEouyqFOK7ntM-25" target="PtvGfc8u3fFPzmpzfyYF-7" edge="1">
          <mxGeometry x="-0.1026" width="50" height="50" relative="1" as="geometry">
            <mxPoint x="502.43000000000006" y="-3460" as="sourcePoint" />
            <mxPoint x="411" y="-3450" as="targetPoint" />
            <mxPoint x="1" as="offset" />
          </mxGeometry>
        </mxCell>
        <mxCell id="3v1VWZy3YVTV6VQQd-Bb-8" value="comprised&lt;br&gt;of" style="endArrow=classic;html=1;rounded=0;exitX=1;exitY=0.75;exitDx=0;exitDy=0;entryX=0;entryY=0.5;entryDx=0;entryDy=0;" parent="WIyWlLk6GJQsqaUBKTNV-1" source="PtvGfc8u3fFPzmpzfyYF-7" target="dxNNPKzMKwNzaO22FzgD-0" edge="1">
          <mxGeometry x="0.0862" y="2" width="50" height="50" relative="1" as="geometry">
            <mxPoint x="281" y="-3390" as="sourcePoint" />
            <mxPoint x="216" y="-3410" as="targetPoint" />
            <mxPoint as="offset" />
          </mxGeometry>
        </mxCell>
        <mxCell id="dxNNPKzMKwNzaO22FzgD-0" value="ManufacturedItemDefinition&lt;br&gt;&lt;i&gt;Tablet 20mg properties&lt;/i&gt;" style="rounded=1;whiteSpace=wrap;html=1;fontSize=12;glass=0;strokeWidth=1;shadow=0;fillColor=#B4D0FA;strokeColor=#6c8ebf;" parent="WIyWlLk6GJQsqaUBKTNV-1" vertex="1">
          <mxGeometry x="280" y="-3350" width="160" height="50" as="geometry" />
        </mxCell>
        <mxCell id="dxNNPKzMKwNzaO22FzgD-1" value="Section&lt;br&gt;&lt;i&gt;Text description&lt;/i&gt;" style="rounded=1;whiteSpace=wrap;html=1;fontSize=12;glass=0;strokeWidth=1;shadow=0;fillColor=#fff2cc;strokeColor=#d6b656;" parent="WIyWlLk6GJQsqaUBKTNV-1" vertex="1">
          <mxGeometry x="295" y="-3470" width="130" height="40" as="geometry" />
        </mxCell>
        <mxCell id="dxNNPKzMKwNzaO22FzgD-2" value="Section&lt;br&gt;&lt;i&gt;Text description&lt;/i&gt;" style="rounded=1;whiteSpace=wrap;html=1;fontSize=12;glass=0;strokeWidth=1;shadow=0;fillColor=#fff2cc;strokeColor=#d6b656;" parent="WIyWlLk6GJQsqaUBKTNV-1" vertex="1">
          <mxGeometry x="295" y="-3420" width="130" height="40" as="geometry" />
        </mxCell>
      </root>
    </mxGraphModel>
  </diagram>
</mxfile>
